<svg width="16" height="9" viewBox="0 0 16 9" fill="none" xmlns="http://www.w3.org/2000/svg">
<path d="M0.726641 8V7.328L1.68664 7.1V1.124L0.726641 0.896V0.224H4.35064V0.896L3.39064 1.124V3.728H3.58264L5.58664 1.244V1.04L5.01064 0.896V0.224H7.79464V0.896L6.95464 1.124L4.85464 3.68L7.20664 7.088L8.17864 7.328V8H6.37864C6.17064 8 6.01064 7.952 5.89864 7.856C5.78664 7.76 5.67064 7.628 5.55064 7.46L3.55864 4.508H3.39064V7.1L4.35064 7.328V8H0.726641ZM11.9681 8.216C10.7521 8.216 9.84411 7.884 9.24411 7.22C8.64411 6.548 8.34411 5.576 8.34411 4.304C8.34411 3.608 8.44411 2.996 8.64411 2.468C8.84411 1.932 9.13211 1.484 9.50811 1.124C9.88411 0.756 10.3281 0.48 10.8401 0.296C11.3601 0.104 11.9281 0.0079999 12.5441 0.0079999C13.0881 0.0079999 13.5441 0.0519998 13.9121 0.14C14.2881 0.227999 14.5961 0.307999 14.8361 0.379999V2.54H13.9361L13.6841 1.244C13.5321 1.172 13.3601 1.116 13.1681 1.076C12.9841 1.036 12.7881 1.016 12.5801 1.016C11.7641 1.016 11.1761 1.26 10.8161 1.748C10.4641 2.236 10.2881 3.032 10.2881 4.136C10.2881 4.928 10.3601 5.548 10.5041 5.996C10.6481 6.444 10.8641 6.76 11.1521 6.944C11.4401 7.128 11.8041 7.22 12.2441 7.22C12.3801 7.22 12.5081 7.216 12.6281 7.208C12.7481 7.192 12.8561 7.172 12.9521 7.148C13.0481 7.124 13.1321 7.1 13.2041 7.076V4.892L12.2441 4.664V3.992H15.5081V4.664L14.9081 4.892V8H14.3321L14.0801 7.688H13.9721C13.7481 7.824 13.4761 7.944 13.1561 8.048C12.8441 8.16 12.4481 8.216 11.9681 8.216Z" fill="black"/>
</svg>
